{
  "accessors": [
    {
      "bufferView": 2,
      "componentType": 5126,
      "count": 5899,
      "max": [
        0.44400182366371155,
        0.5746862292289734,
        0.9517707824707031
      ],
      "min": [
        -0.4132082760334015,
        -1.1132073402404785,
        -0.7735331058502197
      ],
      "type": "VEC3"
    },
    {
      "bufferView": 2,
      "byteOffset": 70788,
      "componentType": 5126,
      "count": 5899,
      "max": [
        0.9999655485153198,
        0.9991626739501953,
        0.999648928642273
      ],
      "min": [
        -0.9997385740280151,
        -0.9997632503509521,
        -0.9995543956756592
      ],
      "type": "VEC3"
    },
    {
      "bufferView": 3,
      "componentType": 5126,
      "count": 5899,
      "max": [
        0.9996543526649475,
        0.9995017647743225,
        0.9994949698448181,
        1.0
      ],
      "min": [
        -0.9989346861839294,
        -0.9997775554656982,
        -0.9999387860298157,
        -1.0
      ],
      "type": "VEC4"
    },
    {
      "bufferView": 1,
      "componentType": 5126,
      "count": 5899,
      "max": [
        0.9563199877738953,
        0.9900000095367432
      ],
      "min": [
        0.009999999776482582,
        0.009999999776482582
      ],
      "type": "VEC2"
    },
    {
      "bufferView": 1,
      "byteOffset": 47192,
      "componentType": 5126,
      "count": 5899,
      "max": [
        0.9563199877738953,
        0.9900000095367432
      ],
      "min": [
        0.009999999776482582,
        0.009999999776482582
      ],
      "type": "VEC2"
    },
    {
      "bufferView": 1,
      "byteOffset": 94384,
      "componentType": 5126,
      "count": 5899,
      "max": [
        0.9563199877738953,
        0.9900000095367432
      ],
      "min": [
        0.009999999776482582,
        0.009999999776482582
      ],
      "type": "VEC2"
    },
    {
      "bufferView": 1,
      "byteOffset": 141576,
      "componentType": 5126,
      "count": 5899,
      "max": [
        0.9563199877738953,
        0.9900000095367432
      ],
      "min": [
        0.009999999776482582,
        0.009999999776482582
      ],
      "type": "VEC2"
    },
    {
      "bufferView": 0,
      "componentType": 5125,
      "count": 30054,
      "type": "SCALAR"
    }
  ],
  "asset": {
    "extras": {
      "author": "alexalbinyana (https://sketchfab.com/alexalbinyana)",
      "license": "CC-BY-4.0 (http://creativecommons.org/licenses/by/4.0/)",
      "source": "https://sketchfab.com/3d-models/swamp-monster-6dab8cb402864d9c842d52e4dded1bdf",
      "title": "SWAMP MONSTER"
    },
    "generator": "Sketchfab-12.65.0",
    "version": "2.0"
  },
  "bufferViews": [
    {
      "buffer": 0,
      "byteLength": 120216,
      "name": "floatBufferViews",
      "target": 34963
    },
    {
      "buffer": 0,
      "byteLength": 188768,
      "byteOffset": 120216,
      "byteStride": 8,
      "name": "floatBufferViews",
      "target": 34962
    },
    {
      "buffer": 0,
      "byteLength": 141576,
      "byteOffset": 308984,
      "byteStride": 12,
      "name": "floatBufferViews",
      "target": 34962
    },
    {
      "buffer": 0,
      "byteLength": 94384,
      "byteOffset": 450560,
      "byteStride": 16,
      "name": "floatBufferViews",
      "target": 34962
    }
  ],
  "buffers": [
    {
      "byteLength": 544944,
      "uri": "scene.bin"
    }
  ],
  "extensionsRequired": [
    "KHR_materials_pbrSpecularGlossiness"
  ],
  "extensionsUsed": [
    "KHR_materials_pbrSpecularGlossiness"
  ],
  "images": [
    {
      "uri": "textures/FOREST_MONSTER_V1_mat_diffuse.png"
    },
    {
      "uri": "textures/FOREST_MONSTER_V1_mat_specularGlossiness.png"
    },
    {
      "uri": "textures/FOREST_MONSTER_V1_mat_normal.png"
    },
    {
      "uri": "textures/FOREST_MONSTER_V1_mat_occlusion.png"
    }
  ],
  "materials": [
    {
      "extensions": {
        "KHR_materials_pbrSpecularGlossiness": {
          "diffuseFactor": [
            1.0,
            1.0,
            1.0,
            1.0
          ],
          "diffuseTexture": {
            "index": 0
          },
          "glossinessFactor": 1.0,
          "specularFactor": [
            0.12366615853658537,
            0.12366615853658537,
            0.12366615853658537
          ],
          "specularGlossinessTexture": {
            "index": 1
          }
        }
      },
      "name": "FOREST_MONSTER_V1_mat",
      "normalTexture": {
        "index": 2
      },
      "occlusionTexture": {
        "index": 3
      }
    }
  ],
  "meshes": [
    {
      "name": "Group32385_FOREST_MONSTER_V1_mat_0",
      "primitives": [
        {
          "attributes": {
            "NORMAL": 1,
            "POSITION": 0,
            "TANGENT": 2,
            "TEXCOORD_0": 3,
            "TEXCOORD_1": 4,
            "TEXCOORD_2": 5,
            "TEXCOORD_3": 6
          },
          "indices": 7,
          "material": 0,
          "mode": 4
        }
      ]
    }
  ],
  "nodes": [
    {
      "children": [
        1
      ],
      "matrix": [
        1.0,
        0.0,
        0.0,
        0.0,
        0.0,
        2.220446049250313e-16,
        -1.0,
        0.0,
        0.0,
        1.0,
        2.220446049250313e-16,
        0.0,
        0.0,
        0.0,
        0.0,
        1.0
      ],
      "name": "Sketchfab_model"
    },
    {
      "children": [
        2
      ],
      "matrix": [
        1.0,
        0.0,
        0.0,
        0.0,
        0.0,
        0.0,
        1.0,
        0.0,
        0.0,
        -1.0,
        0.0,
        0.0,
        0.0,
        0.0,
        0.0,
        1.0
      ],
      "name": "d105c1a7903f4ce5b15c7087bbc4db6e.fbx"
    },
    {
      "children": [
        3
      ],
      "name": "RootNode"
    },
    {
      "children": [
        4
      ],
      "matrix": [
        11.246306419372559,
        0.0,
        0.0,
        0.0,
        0.0,
        11.246306419372559,
        0.0,
        0.0,
        0.0,
        0.0,
        11.246306419372559,
        0.0,
        0.0,
        12.266924858093262,
        0.0,
        1.0
      ],
      "name": "Group32385"
    },
    {
      "mesh": 0,
      "name": "Group32385_FOREST_MONSTER_V1_mat_0"
    }
  ],
  "samplers": [
    {
      "magFilter": 9729,
      "minFilter": 9987,
      "wrapS": 10497,
      "wrapT": 10497
    }
  ],
  "scene": 0,
  "scenes": [
    {
      "name": "Sketchfab_Scene",
      "nodes": [
        0
      ]
    }
  ],
  "textures": [
    {
      "sampler": 0,
      "source": 0
    },
    {
      "sampler": 0,
      "source": 1
    },
    {
      "sampler": 0,
      "source": 2
    },
    {
      "sampler": 0,
      "source": 3
    }
  ]
}
